<svg width="300" height="300" viewBox="0 0 300 300" fill="none" xmlns="http://www.w3.org/2000/svg">
<rect width="300" height="300" fill="white"/>
<g clip-path="url(#clip0_2002_330)">
<path d="M150 250C205.228 250 250 205.228 250 150C250 94.7715 205.228 50 150 50C94.7715 50 50 94.7715 50 150C50 205.228 94.7715 250 150 250Z" fill="#FDE1D2"/>
<path d="M100 100V112.5C120.71 112.5 137.5 129.29 137.5 150V200H162.5V150C162.5 129.29 179.29 112.5 200 112.5V100H100Z" fill="#1E2128"/>
<path d="M175 150V200H200V125C186.193 125 175 136.193 175 150Z" fill="#E95450"/>
<path d="M100 125V200H125V150C125 136.193 113.807 125 100 125Z" fill="#E95450"/>
</g>
<defs>
<clipPath id="clip0_2002_330">
<rect width="200" height="200" fill="white" transform="translate(50 50)"/>
</clipPath>
</defs>
</svg>
