<svg width="300" height="300" viewBox="0 0 300 300" fill="none" xmlns="http://www.w3.org/2000/svg">
<rect width="300" height="300" fill="white"/>
<path fill-rule="evenodd" clip-rule="evenodd" d="M79.9312 86.6397C82.7034 90.5759 84.4801 94.2977 85.736 97.6979H85.7283C88.1406 104.628 88.5618 109.974 88.6231 115.434H88.6308C88.6397 123.472 90.6077 131.61 94.336 138.691C98.0425 145.79 103.472 151.833 109.882 156.044C116.269 160.279 123.643 162.669 130.849 162.86C131.301 162.845 131.748 162.835 132.191 162.825H132.191H132.191H132.191H132.191H132.191H132.191C133.55 162.795 134.872 162.765 136.195 162.592C136.518 162.532 136.838 162.475 137.156 162.419C138.591 162.162 139.974 161.916 141.341 161.489C143.01 160.938 144.626 160.295 146.15 159.559C147.689 158.671 149.145 157.783 150.492 156.672C149.594 155.841 148.744 155.108 147.935 154.41L147.934 154.41L147.934 154.41C147.529 154.06 147.133 153.719 146.748 153.379C146.104 152.783 145.491 152.174 144.902 151.589L144.902 151.588C144.439 151.129 143.992 150.684 143.554 150.27L140.843 147.207C140.024 146.166 139.266 145.178 138.561 144.22C135.789 140.284 134.012 136.562 132.756 133.162H132.764C130.352 126.232 129.931 120.886 129.869 115.426H129.862C129.853 107.388 127.885 99.2502 124.156 92.1688C120.45 85.0698 115.02 79.0276 108.611 74.8157C102.224 70.5808 94.8491 68.1915 87.6429 68C87.1911 68.0151 86.7445 68.025 86.3017 68.0349C84.9429 68.0652 83.6202 68.0948 82.2975 68.268C81.9744 68.3277 81.6542 68.3848 81.3367 68.4415C79.9009 68.6977 78.5184 68.9444 77.1513 69.3708C75.4819 69.9222 73.866 70.5654 72.3421 71.3006C70.8028 72.1889 69.3478 73.0773 68 74.1877C68.898 75.0193 69.7484 75.7524 70.5579 76.4503L70.558 76.4504C70.9635 76.8 71.3588 77.1407 71.7448 77.4806C72.3887 78.0774 73.0014 78.6861 73.5908 79.2718L73.5908 79.2718L73.5908 79.2718L73.5908 79.2718L73.5908 79.2718L73.5908 79.2718L73.5908 79.2718L73.5909 79.2719C74.0529 79.731 74.5007 80.1759 74.9382 80.5898L77.6491 83.653C78.4685 84.6945 79.2267 85.6824 79.9312 86.6397ZM85.736 203.302C84.4801 206.702 82.7034 210.424 79.9312 214.36C79.2267 215.318 78.4685 216.305 77.6491 217.347L74.9382 220.41C74.5007 220.824 74.0529 221.269 73.5909 221.728C73.0014 222.314 72.3887 222.923 71.7448 223.519C71.3592 223.859 70.9643 224.199 70.5591 224.549L70.5578 224.55L70.5575 224.55C69.7481 225.248 68.8978 225.981 68 226.812C69.3478 227.923 70.8028 228.811 72.3421 229.699C73.866 230.435 75.4819 231.078 77.1513 231.629C78.5184 232.056 79.9009 232.302 81.3367 232.559L81.34 232.559C81.6565 232.616 81.9755 232.673 82.2975 232.732C83.6202 232.905 84.9429 232.935 86.3017 232.965L86.3042 232.965C86.7462 232.975 87.192 232.985 87.6429 233C94.8491 232.809 102.224 230.419 108.611 226.184C115.02 221.972 120.45 215.93 124.156 208.831C127.885 201.75 129.853 193.612 129.862 185.574H129.869C129.915 181.599 130.16 177.678 131.209 173.168H130.872V173.175H130.574C121.491 172.93 112.118 169.898 104.184 164.644C101.473 162.86 98.9231 160.808 96.5492 158.549C95.7604 159.766 95.0099 161.015 94.336 162.309C90.6077 169.39 88.6397 177.528 88.6308 185.566H88.6231C88.5618 191.026 88.1406 196.372 85.7283 203.302H85.736ZM215.241 203.302C216.497 206.702 218.273 210.424 221.046 214.36C221.75 215.318 222.508 216.305 223.328 217.347L226.039 220.41C226.476 220.824 226.924 221.269 227.386 221.728C227.976 222.314 228.588 222.923 229.232 223.519C229.618 223.859 230.014 224.2 230.419 224.55L230.42 224.551L230.421 224.551C231.23 225.249 232.08 225.981 232.977 226.812C231.629 227.923 230.174 228.811 228.635 229.699C227.111 230.435 225.495 231.078 223.826 231.629C222.459 232.056 221.076 232.302 219.641 232.558L219.64 232.559C219.323 232.615 219.003 232.672 218.679 232.732C217.357 232.905 216.034 232.935 214.675 232.965C214.232 232.975 213.786 232.985 213.334 233C206.128 232.809 198.753 230.419 192.366 226.184C185.957 221.972 180.527 215.93 176.821 208.831C173.109 201.781 171.142 193.685 171.116 185.681H171.108C171.046 180.221 170.625 174.876 168.213 167.945H168.221C166.965 164.545 165.188 160.823 162.416 156.887C161.711 155.93 160.953 154.942 160.134 153.9L157.423 150.837C156.985 150.423 156.538 149.978 156.076 149.519L156.075 149.519L156.075 149.519C155.486 148.933 154.873 148.325 154.229 147.728C153.845 147.389 153.45 147.049 153.046 146.7L153.043 146.698L153.042 146.697C152.233 146 151.383 145.266 150.485 144.435C151.832 143.324 153.287 142.436 154.827 141.548C156.351 140.813 157.966 140.169 159.636 139.618C161.003 139.192 162.385 138.945 163.821 138.689L163.821 138.689C164.139 138.632 164.459 138.575 164.782 138.515C166.105 138.342 167.427 138.312 168.786 138.282C169.229 138.272 169.676 138.262 170.127 138.247C177.334 138.439 184.708 140.828 191.095 145.063C197.505 149.275 202.934 155.317 206.641 162.416C210.353 169.466 212.32 177.563 212.346 185.566H212.354C212.415 191.026 212.836 196.372 215.249 203.302H215.241ZM215.241 97.6979C216.497 94.2977 218.273 90.5759 221.046 86.6397C221.75 85.6824 222.508 84.6945 223.328 83.653L226.039 80.5898C226.476 80.176 226.924 79.7311 227.386 79.272L227.386 79.2718L227.387 79.2713C227.976 78.6858 228.588 78.0772 229.232 77.4806C229.618 77.1408 230.013 76.8 230.419 76.4505L230.419 76.4502L230.419 76.4499C231.229 75.7521 232.079 75.0192 232.977 74.1877C231.629 73.0773 230.174 72.1889 228.635 71.3006C227.111 70.5654 225.495 69.9222 223.826 69.3708C222.458 68.9444 221.076 68.6977 219.64 68.4415L219.64 68.4414C219.322 68.3848 219.002 68.3276 218.679 68.268C217.357 68.0948 216.034 68.0652 214.675 68.0349L214.675 68.0349C214.232 68.025 213.786 68.0151 213.334 68C206.128 68.1915 198.753 70.5808 192.366 74.8157C185.957 79.0276 180.527 85.0698 176.821 92.1688C173.092 99.2502 171.124 107.388 171.115 115.426H171.108C171.062 119.401 170.817 123.322 169.768 127.832H170.105V127.825H170.403C179.486 128.07 188.859 131.102 196.793 136.356C199.504 138.14 202.054 140.192 204.428 142.451C205.217 141.234 205.967 139.986 206.641 138.691C210.369 131.61 212.337 123.472 212.346 115.434H212.354C212.415 109.974 212.836 104.628 215.249 97.6979H215.241Z" fill="#C23FC4"/>
</svg>
