<svg width="300" height="300" viewBox="0 0 300 300" fill="none" xmlns="http://www.w3.org/2000/svg">
<rect width="300" height="300" fill="white"/>
<g clip-path="url(#clip0_2002_199)">
<path d="M239 100.895C223.529 96.8702 223.258 101.326 209.772 103.394C209.772 99.4686 202.874 101.315 200.955 98.9932C207.156 98.6946 209.6 98.4016 215.281 97.4286C217.77 97.0029 220.835 97.5945 222.632 96.8205C222.92 96.6988 223.252 95.5434 223.567 95.3443C224.325 94.8689 225.16 95.4051 225.819 94.8468C227.384 93.5089 228.02 92.9726 227.915 90.3189C224.762 87.3335 219.607 89.1468 216.404 89.5615C210.64 90.3023 211.747 88.301 207.404 89.4398C208.306 87.2948 206.691 87.2671 207.25 85.4095C200.429 83.9334 195.263 84.9064 189.815 85.4537C190.329 83.4082 188.62 83.2202 187.303 82.7061C184.051 81.1359 191.026 79.7372 197.348 78.4546C199.915 77.9349 203.571 77.3212 206.342 76.4643C209.092 75.6184 207.537 77.3821 207.841 73.1638C207.006 69.5149 206.591 67.6242 203.184 68.0167C200.811 67.696 201.121 65.1253 198.532 64.9815C195.683 64.5945 192.835 64.2075 189.986 63.826C188.31 63.1516 188.902 60.5753 186.042 60.8849C182.956 59.8731 179.1 62.6706 177.385 60.5144C181.053 59.7736 187.453 58.2477 189.571 56.5505C192.254 54.3943 196.508 53.6646 197.099 49.5513C195.213 45.8085 192.42 44.4319 187.685 44.266C183.11 44.1002 176.794 44.8244 172.274 45.3828C170.46 45.6095 168.308 46.4056 167.064 46.2784C165.139 46.0849 163.54 44.4485 161.588 43.9343C159.657 43.4257 157.373 43.1824 155.177 43.0663C149.269 42.7567 141.907 43.6413 135.38 44.3932C132.454 44.7304 128.72 44.7525 125.783 45.4989C122.447 46.3448 118.216 46.0739 118.476 50.9224C118.725 54.1787 124.494 52.8132 124.212 56.5118C120.799 56.943 116.866 58.0708 112.967 58.9941C109.576 59.8013 104.277 58.9775 103.519 64.1301C104.631 68.9234 110.948 67.5136 115.406 67.3477C114.344 69.4762 98.7065 70.5267 99.138 72.8542C93.2525 73.3904 91.2557 79.6543 95.9906 79.6432C93.4793 81.346 95.8302 87.1344 91.3829 88.1462C87.2509 89.086 81.8301 89.7384 79.6895 93.7798C79.4627 96.5109 82.2616 96.7044 83.4011 98.2911C80.2703 97.8045 78.5057 99.3304 77.7424 102.338C79.0368 106.717 83.1687 104.384 86.1778 104.284C93.4351 104.046 100.405 102.963 106.799 102.266C110.992 101.813 114.228 101.536 116.28 101.945C106.926 104.361 97.119 106.108 87.7488 108.502C85.9787 111.09 87.5828 112.068 87.5662 114.893C84.5129 115.159 81.1498 114.971 79.8775 117.862C77.6428 118.686 80.757 120.748 79.9163 122.683C76.8574 123.54 73.2122 124.143 70.098 125.359C67.1055 126.531 63.0233 127.598 61.9668 131.473C62.4923 131.722 62.6969 132.247 62.4536 133.143C68.61 135.111 75.0929 132.712 81.5425 131.722C84.8282 131.219 88.2189 131.302 91.8475 130.716C97.1079 129.87 98.0151 133.099 92.8266 134.055C87.5386 135.034 81.8135 134.99 77.0842 137.533C75.9502 139.506 77.7867 142.354 76.4093 142.254C71.6689 143.531 64.3287 140.977 63.8917 148.579C72.5484 151.725 83.1079 144.56 91.0344 146.644C87.179 146.71 82.4773 148.363 84.2142 153.742C89.7345 154.986 94.8511 152.637 99.7298 151.835C102.374 151.404 105.366 151.725 107.795 151.326C110.057 150.956 112.463 148.535 114.427 150.624C104.841 152.587 96.1233 154.743 87.3284 157.375C84.7175 158.154 80.1541 157.618 79.424 161.914C79.966 166.342 85.6247 164.18 88.5729 163.954C91.8144 167.287 97.2186 165.673 102.219 165.004C108.906 164.103 116.025 163.185 122.243 162.107C125.617 161.521 129.057 159.31 131.84 161.001C126.48 161.278 121.081 163.804 115.273 165.17C112.662 165.784 109.338 165.59 106.39 166.37C104.111 166.972 99.3979 166.806 99.1933 171.008C100.471 176.282 105.239 172.761 108.458 172.263C112.369 171.661 116.484 171.611 119.588 170.566C119.405 171.882 119.217 173.192 119.029 174.502C120.97 176.111 123.089 177.565 123.233 180.689C127.846 182.74 132.238 179.395 135.679 179.97C136.746 180.152 137.963 181.485 139.014 182.027C140.236 182.657 142.499 181.728 142.349 184.083C138.411 185.587 136.801 184.813 135.242 189.811C135.452 192.409 137.216 193.708 140.496 193.731C139.628 195.306 137.996 195.759 137.686 198.159C138.317 201.985 141.741 200.851 143.45 201.874C142.172 203.162 141.691 212.417 142.892 213.722C140.109 213.772 138.588 216.265 139.263 218.841C141.735 222.91 141.558 221.688 144.518 223.944C135.529 225.63 131.591 227.908 122.884 230.003C122.016 232.812 122.768 234.26 123.526 235.709C124.201 237.218 124.461 239.087 125.816 240.027C128.04 240.132 128.023 239.772 129.804 239.225C132.199 245.047 137.626 239.839 141.431 242.233C129.057 245.069 128.217 244.212 117.358 247.91C115.655 248.491 114.217 249.121 112.751 249.691C111.573 250.144 108.718 249.652 107.535 250.586C106.014 251.797 105.709 253.638 105.328 255.899C108.823 260.084 114.394 256.833 118.376 256.065C123.072 255.164 120.998 254.804 125.501 253.97C144.285 250.476 155.702 249.066 174 246.384C183.415 245.002 189.461 243.874 199.218 242.288C200.451 241.248 200.966 239.148 202.625 238.738C207.078 237.992 213.047 239.479 214.811 234.774C214.916 233.763 216.321 232.159 214.435 228.632C212.549 225.105 199.329 227.958 191.905 228.782C184.444 229.616 185.954 229.08 185.815 224.486C185.373 216.939 177.358 221.185 172.042 220.776C173.215 217.841 164.022 214.971 166.898 210.007C168.082 206.938 169.393 207.557 170.189 206.474C170.98 205.39 170.278 196.799 168.624 195.759C165.023 193.664 165.941 187.511 166.588 186.184C168.552 182.17 173.353 184.647 173.525 178.411C172.966 175.42 164.276 179.107 162.783 176.891C172.783 174.944 184.543 172.468 193.559 169.836C196.762 168.902 201.48 165.668 202.288 160.919C201.132 154.373 190.346 158.386 186.949 156.429C187.137 155.351 186.861 154.655 186.573 153.969C191.065 152.532 196.602 151.514 201.608 150.392C206.785 149.237 207.133 151.371 209.744 146.389C210.004 143.863 206.818 144.222 205.922 142.658C210.181 142.26 215.74 143.786 216.078 137.621C216.78 134.724 211.675 136.687 211.426 134.586C213.185 135.001 214.711 134.138 216.636 133.69C221.958 132.458 228.241 132.115 229.381 125.796C228.418 123.363 223.468 124.275 221.88 122.373C227.661 121.096 239.382 122.943 238.895 115.059C236.384 112.107 229.48 114.838 227.611 112.726C228.601 111.676 228.717 110.857 228.053 109.58C233.994 108.165 232.832 107.706 238.303 105.605C238.53 104.03 238.751 102.46 238.978 100.884L239 100.895ZM117.862 149.082C119.599 146.66 151.15 140.236 153.523 141.242C153.396 142.005 115.92 151.332 117.862 149.082ZM118.526 71.1071C118.653 70.3442 132.708 67.5965 133.289 67.497C135.474 67.497 118.293 72.9979 118.526 71.1071ZM114.311 108.746C114.438 107.983 132.896 104.914 133.471 104.815C134.246 105.561 113.89 112.323 114.311 108.746ZM101.052 128.925C102.313 126.586 167.971 113.826 169.813 114.302C169.619 116.85 99.3592 132.109 101.052 128.925ZM152.35 75.1817C153.125 71.9917 178.486 69.9738 179.061 69.8688C178.934 70.6317 151.769 77.1996 152.35 75.1817ZM132.315 91.9609C132.443 91.1979 177.352 82.3412 177.933 82.2361C175.195 85.8518 131.939 94.3326 132.315 91.9609ZM187.58 139.545C193.288 136.04 209.335 135.299 209.91 135.194C209.783 135.957 188.155 139.44 187.58 139.545ZM189.516 129.561C190.677 126.161 220.497 123.175 221.073 123.076C220.945 123.839 190.091 129.456 189.516 129.561Z" fill="#24618E"/>
</g>
<defs>
<clipPath id="clip0_2002_199">
<rect width="177" height="215" fill="white" transform="translate(62 43)"/>
</clipPath>
</defs>
</svg>
