<svg width="300" height="300" viewBox="0 0 300 300" fill="none" xmlns="http://www.w3.org/2000/svg">
<rect width="300" height="300" fill="white"/>
<g clip-path="url(#clip0_2002_114)">
<path d="M150.501 118.001L128.001 95.5015L105.502 118.001L128.001 140.5L150.501 118.001Z" fill="#B6ECF2"/>
<path d="M172.998 95.5006L150.499 73.0015L128 95.5006L150.499 118L172.998 95.5006Z" fill="#B6ECF2"/>
<path d="M195.498 117.998L172.999 95.4994L150.5 117.998L172.999 140.498L195.498 117.998Z" fill="#B6ECF2"/>
<path d="M217.998 140.5L195.499 118.001L173 140.5L195.499 162.999L217.998 140.5Z" fill="#29ABE2"/>
<path d="M240.498 163.001L217.999 140.502L195.5 163.001L217.999 185.5L240.498 163.001Z" fill="#1B1464"/>
<path d="M240.5 208L218 185.5L225.647 170.927L240.5 163L263 185.5L240.5 208Z" fill="#1B1464"/>
<path d="M127.999 140.501L105.5 118.002L83.0009 140.501L105.5 163L127.999 140.501Z" fill="#29ABE2"/>
<path d="M128 185.5L105.5 163L128 140.5L150.5 163L143.612 176.815L128 185.5Z" fill="#1B1464"/>
<path d="M172.999 185.5L150.5 163.001L128.001 185.5L150.5 207.999L172.999 185.5Z" fill="#1B1464"/>
<path d="M173 185.5L160.677 180.103L150.5 163L173 140.5L195.5 163L173 185.5Z" fill="#1B1464"/>
<path d="M105.498 163.001L82.9985 140.502L60.4995 163.001L82.9985 185.5L105.498 163.001Z" fill="#1B1464"/>
<path d="M60.5 208L38 185.5L60.5 163L74.4881 170.062L83 185.5L60.5 208Z" fill="#1B1464"/>
</g>
<defs>
<clipPath id="clip0_2002_114">
<rect width="225" height="135" fill="white" transform="translate(38 73)"/>
</clipPath>
</defs>
</svg>
