<svg width="300" height="300" viewBox="0 0 300 300" fill="none" xmlns="http://www.w3.org/2000/svg">
<rect width="300" height="300" fill="white"/>
<g clip-path="url(#clip0_2002_342)">
<path d="M161.437 216.125L161.437 194.25C179.532 194.25 194.25 179.532 194.25 161.437L216.125 161.438C216.125 191.59 191.59 216.125 161.437 216.125Z" fill="#F84342"/>
<path d="M139.562 128.625L139.562 106.75C169.715 106.75 194.25 131.285 194.25 161.438L172.375 161.437C172.375 143.342 157.657 128.625 139.562 128.625Z" fill="#F84342"/>
<path d="M139.562 84.875L139.562 63C193.839 63 238 107.161 238 161.438L216.125 161.438C216.125 119.219 181.781 84.875 139.562 84.875Z" fill="#F84342"/>
<path d="M84.875 161.437L106.75 161.437C106.75 191.59 131.285 216.125 161.437 216.125L161.437 238C119.219 238 84.875 203.656 84.875 161.437Z" fill="#F84342"/>
<path d="M106.75 161.437C106.75 143.342 121.467 128.625 139.562 128.625L139.562 150.5C133.534 150.5 128.625 155.409 128.625 161.437L106.75 161.437Z" fill="#F84342"/>
<path d="M63 161.437C63 119.219 97.3438 84.875 139.562 84.875L139.562 106.75C109.41 106.75 84.875 131.285 84.875 161.437L63 161.437Z" fill="#F84342"/>
<path d="M84.875 232.531L84.875 161.438L63 161.437L63 232.531L84.875 232.531Z" fill="#F84342"/>
</g>
<defs>
<clipPath id="clip0_2002_342">
<rect width="175" height="175" fill="white" transform="translate(238 63) rotate(90)"/>
</clipPath>
</defs>
</svg>
