<svg width="300" height="300" viewBox="0 0 300 300" fill="none" xmlns="http://www.w3.org/2000/svg">
<rect width="300" height="300" fill="white"/>
<g clip-path="url(#clip0_2002_479)">
<path d="M250 130V110H167.575C166.931 110 166.314 109.744 165.858 109.289C164.911 108.342 164.911 106.806 165.858 105.858L206.569 65.1472L192.428 51.0056L134.144 109.289C133.689 109.744 133.072 110 132.428 110C131.089 110 130.003 108.914 130.003 107.575V50H110.003V132.425C110.003 133.069 109.747 133.686 109.292 134.142C108.344 135.089 106.808 135.089 105.861 134.142L65.1472 93.4306L51.0056 107.575L109.289 165.858C109.744 166.314 110 166.931 110 167.575C110 168.914 108.914 170 107.575 170H50V190H132.425C133.069 190 133.686 190.256 134.142 190.711C135.089 191.658 135.089 193.194 134.142 194.142L93.4306 234.853L107.572 248.994L165.856 190.711C166.311 190.256 166.928 190 167.572 190C168.911 190 169.997 191.086 169.997 192.425V250H189.997V167.575C189.997 166.931 190.253 166.314 190.708 165.858C191.656 164.911 193.192 164.911 194.139 165.858L234.85 206.569L248.992 192.428L190.708 134.144C190.253 133.689 189.997 133.072 189.997 132.428C189.997 131.089 191.083 130.003 192.422 130.003H249.997L250 130ZM141.717 170L130 158.283V141.714L141.717 129.997H158.286L170.003 141.714V158.283L158.286 170H141.717Z" fill="#B49F6F"/>
<path d="M150 145C152.758 145 155 147.242 155 150C155 152.758 152.758 155 150 155C147.242 155 145 152.758 145 150C145 147.242 147.242 145 150 145ZM150 125C136.192 125 125 136.192 125 150C125 163.808 136.192 175 150 175C163.808 175 175 163.808 175 150C175 136.192 163.808 125 150 125Z" fill="white"/>
</g>
<defs>
<clipPath id="clip0_2002_479">
<rect width="200" height="200" fill="white" transform="translate(50 50)"/>
</clipPath>
</defs>
</svg>
