<svg width="300" height="300" viewBox="0 0 300 300" fill="none" xmlns="http://www.w3.org/2000/svg">
<rect width="300" height="300" fill="white"/>
<path fill-rule="evenodd" clip-rule="evenodd" d="M186.84 120.76C202.948 120.76 216.007 133.817 216.01 149.925C216.007 166.033 202.948 179.09 186.84 179.09C184.84 179.09 182.89 178.88 181 178.5C169.86 204.55 143.99 222.84 113.92 222.84C73.71 222.84 41 190.13 41 149.92C41 109.71 73.71 77 113.92 77V106.17C89.7999 106.17 70.1699 125.8 70.1699 149.92C70.1699 174.04 89.7999 193.67 113.92 193.67C138.04 193.67 157.67 174.05 157.67 149.93C157.67 133.82 170.73 120.76 186.84 120.76ZM216.01 149.925C216.01 149.927 216.01 149.928 216.01 149.93V149.92C216.01 149.922 216.01 149.923 216.01 149.925ZM119.76 121.35C130.9 95.3 156.77 77.01 186.84 77.01C227.05 77.01 259.76 109.72 259.76 149.93C259.76 190.14 227.05 222.85 186.84 222.85V193.68C210.96 193.68 230.59 174.05 230.59 149.93C230.59 125.81 210.96 106.18 186.84 106.18C162.72 106.18 143.09 125.81 143.09 149.93C143.09 166.04 130.03 179.1 113.92 179.1C97.8099 179.1 84.75 166.04 84.75 149.93C84.75 133.82 97.8099 120.76 113.92 120.76C115.92 120.76 117.87 120.97 119.76 121.35Z" fill="#F84342"/>
</svg>
