<svg width="300" height="300" viewBox="0 0 300 300" fill="none" xmlns="http://www.w3.org/2000/svg">
<rect width="300" height="300" fill="white"/>
<g clip-path="url(#clip0_2002_336)">
<path d="M121.241 102.239C126.967 104.686 132.041 107.413 136.281 109.978C129.924 108.667 122.117 107.308 113.419 106.312C90.0392 103.641 71.9084 105.001 58.263 107.854C55.2563 110.763 52.495 113.743 50 116.75C93.7888 103.13 150.683 120.255 151.293 120.444L156.374 122.001L155.512 116.757C155.316 115.551 150.781 89.1865 133.506 68.5559C131.116 69.0606 128.698 69.6285 126.266 70.2734C133.429 78.0756 138.496 87.1957 142 95.3484C141.734 95.0539 141.467 94.7595 141.194 94.4721C134.634 87.4691 124.507 79.5126 110.196 75.4889C106.649 76.8488 103.089 78.363 99.5357 80.0174C113.84 81.84 126.154 88.121 136.218 98.7903C138.433 101.139 140.332 103.494 141.937 105.716C137.122 102.674 131.067 99.288 124.03 96.2737C110.875 90.6306 97.7065 87.7775 84.9231 87.7214C81.0334 90.0277 77.3119 92.4532 73.7937 94.9768C88.974 92.8247 104.862 95.2502 121.248 102.239H121.241Z" fill="#32CDCD"/>
<path d="M178.759 198.761C173.033 196.314 167.959 193.587 163.719 191.022C170.076 192.333 177.883 193.692 186.581 194.688C209.961 197.359 228.092 195.999 241.737 193.146C244.744 190.237 247.505 187.257 250 184.25C206.211 197.87 149.317 180.745 148.707 180.556L143.626 178.999L144.488 184.243C144.684 185.449 149.219 211.813 166.495 232.444C168.884 231.939 171.302 231.372 173.734 230.727C166.572 222.924 161.505 213.804 158 205.652C158.267 205.946 158.533 206.24 158.806 206.528C165.366 213.531 175.493 221.487 189.805 225.511C193.351 224.151 196.911 222.637 200.464 220.983C186.16 219.16 173.846 212.879 163.782 202.21C161.568 199.861 159.668 197.506 158.063 195.284C162.878 198.326 168.933 201.712 175.97 204.726C189.125 210.369 202.294 213.222 215.077 213.279C218.967 210.972 222.688 208.547 226.206 206.023C211.026 208.175 195.138 205.75 178.752 198.761H178.759Z" fill="#32CDCD"/>
<path d="M122.594 199.539C121.844 193.356 121.675 187.594 121.774 182.645C123.813 188.806 126.539 196.251 130.029 204.285C139.407 225.876 149.653 240.898 158.939 251.287C162.962 252.437 166.915 253.341 170.77 253.993C137.08 222.875 123.463 165.028 123.322 164.404L122.131 159.224L118.024 162.596C117.085 163.367 96.5221 180.479 87.292 205.757C88.925 207.579 90.628 209.388 92.4011 211.176C95.576 201.074 100.937 192.122 106.243 185.007C106.124 185.386 106.005 185.764 105.885 186.15C103.103 195.34 101.274 208.084 104.946 222.497C107.897 224.887 110.988 227.215 114.197 229.465C108.626 216.167 107.904 202.357 112.109 188.302C113.034 185.21 114.12 182.392 115.249 179.883C115.024 185.582 115.123 192.515 116.027 200.121C117.716 214.337 121.837 227.173 128.179 238.269C132.125 240.485 136.085 242.489 140.024 244.284C130.569 232.213 124.724 217.232 122.587 199.546L122.594 199.539Z" fill="#32CDCD"/>
<path d="M177.407 101.454C178.156 107.637 178.325 113.399 178.227 118.348C176.187 112.187 173.461 104.742 169.971 96.7083C160.593 75.1173 150.347 60.0948 141.061 49.7059C137.038 48.5562 133.085 47.6519 129.23 47C162.92 78.1176 176.537 135.965 176.678 136.589L177.869 141.769L181.976 138.397C182.915 137.626 203.478 120.514 212.708 95.2362C211.075 93.4136 209.372 91.605 207.599 89.8174C204.424 99.9189 199.063 108.871 193.757 115.986C193.876 115.607 193.996 115.229 194.115 114.843C196.897 105.653 198.726 92.9089 195.054 78.4962C192.103 76.1058 189.013 73.7784 185.803 71.5282C191.374 84.8263 192.096 98.6361 187.891 112.691C186.966 115.783 185.88 118.601 184.751 121.11C184.976 115.411 184.878 108.478 183.973 100.872C182.284 86.6559 178.163 73.8205 171.821 62.7236C167.875 60.5084 163.915 58.5035 159.977 56.7089C169.431 68.7803 175.276 83.7607 177.414 101.447L177.407 101.454Z" fill="#32CDCD"/>
<path d="M206.162 149.718C201.179 153.455 196.28 156.49 191.942 158.874C196.252 154.023 201.34 147.945 206.548 140.9C220.55 121.98 228.435 105.597 232.787 92.3551C231.771 88.2963 230.573 84.4197 229.22 80.7534C219.121 125.492 175.844 166.213 175.374 166.648L171.484 170.265L176.453 172.137C177.596 172.564 202.693 181.824 229.185 177.177C229.949 174.856 230.664 172.473 231.322 170.048C220.985 172.347 210.556 172.186 201.747 171.141C202.132 171.057 202.518 170.973 202.91 170.882C212.26 168.702 224.209 163.907 234.848 153.518C235.443 149.76 235.913 145.926 236.256 142.021C227.524 153.497 215.932 161.026 201.663 164.411C198.523 165.155 195.537 165.624 192.804 165.905C197.85 163.255 203.807 159.701 209.94 155.116C221.399 146.543 230.453 136.561 236.894 125.52C236.838 120.991 236.6 116.561 236.179 112.25C230.453 126.473 220.41 139.028 206.162 149.725V149.718Z" fill="#32CDCD"/>
<path d="M93.8307 151.282C98.8137 147.545 103.713 144.51 108.051 142.126C103.741 146.977 98.6525 153.055 93.4452 160.1C79.4423 179.02 71.5578 195.403 67.2056 208.645C68.2218 212.704 69.4202 216.58 70.7729 220.247C80.872 175.508 124.149 134.787 124.619 134.352L128.508 130.735L123.539 128.863C122.397 128.436 97.2998 119.176 70.8079 123.823C70.044 126.144 69.3291 128.527 68.6703 130.952C79.0078 128.653 89.4364 128.814 98.246 129.859C97.8605 129.943 97.4751 130.027 97.0826 130.118C87.7333 132.298 75.7839 137.093 65.1451 147.482C64.5494 151.24 64.0798 155.074 63.7364 158.979C72.4689 147.503 84.0609 139.974 98.3301 136.589C101.47 135.845 104.455 135.376 107.189 135.095C102.143 137.745 96.1855 141.299 90.0531 145.884C78.5943 154.457 69.5394 164.439 63.0986 175.48C63.1547 180.009 63.393 184.439 63.8135 188.75C69.5394 174.527 79.5825 161.972 93.8307 151.275V151.282Z" fill="#32CDCD"/>
</g>
<defs>
<clipPath id="clip0_2002_336">
<rect width="200" height="207" fill="white" transform="translate(50 47)"/>
</clipPath>
</defs>
</svg>
