<svg width="300" height="300" viewBox="0 0 300 300" fill="none" xmlns="http://www.w3.org/2000/svg">
<rect width="300" height="300" fill="white"/>
<g clip-path="url(#clip0_2002_217)">
<path d="M251.755 169.513C245.464 139.502 216.387 88.4567 203.44 66.7217C200.487 61.7594 193.901 61.7594 190.948 66.7217C182.71 80.5544 167.936 106.26 156.66 130.861C153.897 136.885 146.095 136.885 143.332 130.861C132.056 106.264 117.286 80.5583 109.044 66.7217C106.091 61.7594 99.505 61.7594 96.5519 66.7217C83.6125 88.4567 54.5357 139.502 48.2447 169.513C47.1567 174.704 50.7043 179.667 55.5265 179.667H244.473C249.295 179.667 252.843 174.704 251.755 169.513Z" fill="#0F172A"/>
<path d="M186.467 194.25H55.48C50.5568 194.25 46.9897 199.858 48.2564 205.563C52.4064 224.253 66.6009 238 83.496 238C94.5431 238 104.436 232.12 111.123 222.826C114.077 218.719 119.419 218.719 122.373 222.826C129.056 232.12 138.949 238 150 238C161.051 238 170.94 232.12 177.627 222.826C180.581 218.719 185.923 218.719 188.877 222.826C195.56 232.12 205.453 238 216.504 238C233.399 238 247.594 224.253 251.744 205.563C253.01 199.854 249.447 194.25 244.52 194.25H186.467Z" fill="#38BDF8"/>
</g>
<defs>
<clipPath id="clip0_2002_217">
<rect width="204" height="175" fill="white" transform="translate(48 63)"/>
</clipPath>
</defs>
</svg>
