<svg width="300" height="300" viewBox="0 0 300 300" fill="none" xmlns="http://www.w3.org/2000/svg">
<rect width="300" height="300" fill="white"/>
<g clip-path="url(#clip0_2002_219)">
<path d="M150 50C94.8615 50 50 94.8615 50 150C50 205.138 94.8615 250 150 250C205.138 250 250 205.138 250 150C250 94.8615 205.138 50 150 50Z" fill="#F84342"/>
<path d="M150 116.665V138.886H183.335V150C183.335 168.382 168.381 183.335 150 183.335C131.618 183.335 116.664 168.382 116.664 150C116.664 131.618 131.618 116.665 150 116.665V94.4431C119.366 94.4431 94.4429 119.366 94.4429 150C94.4429 180.634 119.366 205.557 150 205.557C180.634 205.557 205.557 180.634 205.557 150V116.665H150Z" fill="white"/>
</g>
<defs>
<clipPath id="clip0_2002_219">
<rect width="200" height="200" fill="white" transform="translate(50 50)"/>
</clipPath>
</defs>
</svg>
