<svg width="300" height="300" viewBox="0 0 300 300" fill="none" xmlns="http://www.w3.org/2000/svg">
<rect width="300" height="300" fill="white"/>
<path fill-rule="evenodd" clip-rule="evenodd" d="M244.46 244.46C194.08 244.46 146.74 224.87 111.17 189.29C75.5901 153.71 56 106.38 56 56H69.4601H82.92H109.84H123.31H136.76C136.76 84.79 147.95 111.84 168.28 132.17C188.61 152.5 215.66 163.69 244.45 163.69V190.61L244.46 190.62C208.48 190.62 174.66 176.62 149.25 151.21C130.299 132.259 117.695 108.635 112.511 82.92H85.1337C90.6156 115.862 106.144 146.194 130.2 170.25C160.69 200.74 201.27 217.53 244.45 217.53V244.45L244.46 244.46ZM163.69 56C163.69 100.54 199.92 136.77 244.46 136.77V109.85C224.569 109.85 207.16 99.006 197.835 82.92H244.46V56H190.61H177.15H163.69Z" fill="#4263C0"/>
</svg>
