<svg width="300" height="300" viewBox="0 0 300 300" fill="none" xmlns="http://www.w3.org/2000/svg">
<rect width="300" height="300" fill="white"/>
<g clip-path="url(#clip0_2002_211)">
<path d="M234.936 187.694L249.772 142.111C250.54 139.745 249.277 137.19 246.928 136.38L237.883 133.25C236.216 132.674 234.373 133.147 233.156 134.424C210.373 158.237 183.318 173.975 159.801 184.193C155.706 185.972 156.257 191.914 160.621 192.849C177.948 196.555 204.94 199.412 231.973 190.677C233.372 190.226 234.481 189.091 234.936 187.694Z" fill="#51A8DA"/>
<path d="M140.488 250.943L188.318 251C190.804 251 192.835 249.01 192.875 246.518L193.051 236.927C193.085 235.159 192.067 233.551 190.48 232.782C160.842 218.423 137.553 197.496 120.59 178.229C117.637 174.87 112.171 177.237 112.631 181.684C114.469 199.35 120.101 225.967 136.74 249.033C137.599 250.23 139.015 250.937 140.488 250.937V250.943Z" fill="#51A8DA"/>
<path d="M51.2914 180.447L66.0192 226.064C66.7872 228.436 69.3015 229.754 71.6794 229.024L80.8323 226.23C82.5218 225.711 83.7335 224.245 83.9724 222.495C88.4437 189.776 101.118 161.082 114.168 138.952C116.42 135.137 112.427 130.695 108.388 132.497C92.1982 139.71 68.6871 153.304 51.9456 176.29C51.0809 177.482 50.842 179.05 51.2971 180.453L51.2914 180.447Z" fill="#51A8DA"/>
<path d="M90.611 73.6277L51.8829 101.762C49.8692 103.222 49.397 106.033 50.8249 108.075L56.3087 115.938C57.3213 117.386 59.0847 118.088 60.8197 117.774C93.2448 111.924 124.384 115.145 149.414 120.745C153.732 121.709 156.713 116.537 153.755 113.241C141.911 100.035 121.745 81.8218 94.7637 72.9663C93.3643 72.5044 91.8056 72.7667 90.6167 73.6334L90.611 73.6277Z" fill="#51A8DA"/>
<path d="M204.116 78.104L165.45 49.8781C163.442 48.4127 160.632 48.8289 159.136 50.819L153.373 58.477C152.31 59.8912 152.19 61.79 153.026 63.3467C168.596 92.4507 175.166 123.134 177.584 148.726C177.999 153.139 183.836 154.382 186.049 150.545C194.917 135.171 205.964 110.321 206.033 81.8617C206.033 80.3848 205.305 78.9821 204.116 78.1097V78.104Z" fill="#51A8DA"/>
</g>
<defs>
<clipPath id="clip0_2002_211">
<rect width="200" height="202" fill="white" transform="translate(50 49)"/>
</clipPath>
</defs>
</svg>
