<svg width="300" height="300" viewBox="0 0 300 300" fill="none" xmlns="http://www.w3.org/2000/svg">
<rect width="300" height="300" fill="white"/>
<g clip-path="url(#clip0_2002_201)">
<path d="M136.622 99.2261C139.176 99.2261 141.25 97.1566 141.25 94.6079C141.25 92.0593 139.176 89.9898 136.622 89.9898C134.068 89.9898 131.994 92.0593 131.994 94.6079C131.994 97.1566 134.068 99.2261 136.622 99.2261Z" fill="#AF9C68"/>
<path d="M164.378 99.2261C166.932 99.2261 169.006 97.1566 169.006 94.6079C169.006 92.0593 166.932 89.9898 164.378 89.9898C161.824 89.9898 159.75 92.0593 159.75 94.6079C159.75 97.1566 161.824 99.2261 164.378 99.2261Z" fill="#AF9C68"/>
<path d="M210.626 99.2261C213.18 99.2261 215.254 97.1566 215.254 94.6079C215.254 92.0593 213.18 89.9898 210.626 89.9898C208.072 89.9898 205.998 92.0593 205.998 94.6079C205.998 97.1566 208.072 99.2261 210.626 99.2261Z" fill="#AF9C68"/>
<path d="M238.382 90C235.828 90 233.755 92.0695 233.755 94.6181C233.755 97.1668 235.828 99.2363 238.382 99.2363C240.936 99.2363 243.01 97.1668 243.01 94.6181C243.01 92.0695 240.936 90 238.382 90Z" fill="#AF9C68"/>
<path d="M67.2454 94.6181C67.2454 92.0695 65.1818 90 62.6278 90C60.0738 90 58 92.0695 58 94.6181C58 97.1668 60.0738 99.2363 62.6278 99.2363C65.1818 99.2363 67.2556 97.1668 67.2556 94.6181H67.2454Z" fill="#AF9C68"/>
<path d="M90.3741 99.2261C92.9281 99.2261 95.002 97.1566 95.002 94.6079C95.002 92.0593 92.9281 89.9898 90.3741 89.9898C87.8202 89.9898 85.7463 92.0593 85.7463 94.6079C85.7463 97.1566 87.8202 99.2261 90.3741 99.2261Z" fill="#AF9C68"/>
<path d="M212.168 123.846C212.168 129.677 217.705 135.498 223.529 136.09H225.48C231.303 135.488 236.84 129.667 236.84 123.846C236.84 117.688 230.669 117.688 224.509 117.688C218.349 117.688 212.179 117.688 212.179 123.846H212.168Z" fill="#AF9C68"/>
<path d="M138.164 123.846C138.164 129.677 143.701 135.498 149.524 136.09H151.476C157.299 135.488 162.836 129.667 162.836 123.846C162.836 117.688 156.665 117.688 150.505 117.688C144.345 117.688 138.175 117.688 138.175 123.846H138.164Z" fill="#AF9C68"/>
<path d="M226.889 140.708H222.129C216.857 154.674 203.352 164.614 187.507 164.614C171.662 164.614 158.157 154.674 152.885 140.708H148.135C142.864 154.674 129.358 164.614 113.513 164.614C97.6683 164.614 84.1629 154.674 78.8915 140.708H74.1308C71.5156 147.63 66.8775 153.573 60.9319 157.794L76.5214 210H224.519L240.109 157.794C234.163 153.573 229.525 147.63 226.91 140.708H226.889Z" fill="#AF9C68"/>
<path d="M64.1704 123.846C64.1704 129.677 69.7074 135.498 75.5305 136.09H77.4817C83.3048 135.488 88.8418 129.667 88.8418 123.846C88.8418 117.688 82.6714 117.688 76.5112 117.688C70.351 117.688 64.1806 117.688 64.1806 123.846H64.1704Z" fill="#AF9C68"/>
</g>
<defs>
<clipPath id="clip0_2002_201">
<rect width="185" height="120" fill="white" transform="translate(58 90)"/>
</clipPath>
</defs>
</svg>
