<svg width="300" height="300" viewBox="0 0 300 300" fill="none" xmlns="http://www.w3.org/2000/svg">
<rect width="300" height="300" fill="white"/>
<g clip-path="url(#clip0_2002_203)">
<path d="M150 156.335H138.308V238.003H150V156.335Z" fill="#202020"/>
<path d="M150 97.9986H138.308V132.997H150V97.9986Z" fill="#202020"/>
<path d="M114.927 63H103.234V109.666H114.927V63Z" fill="#202020"/>
<path d="M71 97.9986V109.666H179.229V97.9986H71Z" fill="#202020"/>
<path d="M196.769 97.9986V109.666H229.003V97.9986H196.769Z" fill="#202020"/>
<path d="M71 121.333V109.666H82.6923L71 121.333Z" fill="#202020"/>
<path d="M161.692 238H150V226.333L161.692 238Z" fill="#202020"/>
<path d="M91.542 63H103.234V74.6673L91.542 63Z" fill="#202020"/>
<path d="M138.308 226.333V238H126.615L138.308 226.333Z" fill="#202020"/>
<path d="M114.927 121.333H103.234V203.001H114.927V121.333Z" fill="#202020"/>
<path d="M126.615 203.001H114.923V191.334L126.615 203.001Z" fill="#202020"/>
<path d="M103.234 191.334V203.001H91.542L103.234 191.334Z" fill="#202020"/>
<path d="M217.308 109.666H229V121.333L217.308 109.666Z" fill="#202020"/>
<path d="M161.689 63H114.923V74.6673H161.689V63Z" fill="#202020"/>
<path d="M161.689 133.001H114.923V144.668H161.689V133.001Z" fill="#202020"/>
<path d="M202.614 103.834H190.921C190.921 87.7529 177.808 74.6673 161.692 74.6673V63C184.256 63 202.614 81.3184 202.614 103.834Z" fill="#202020"/>
<path d="M161.692 144.668V133.001C177.808 133.001 190.921 119.915 190.921 103.834H202.614C202.614 126.35 184.256 144.668 161.692 144.668Z" fill="#202020"/>
</g>
<defs>
<clipPath id="clip0_2002_203">
<rect width="158" height="175" fill="white" transform="translate(71 63)"/>
</clipPath>
</defs>
</svg>
