<svg width="300" height="300" viewBox="0 0 300 300" fill="none" xmlns="http://www.w3.org/2000/svg">
<rect width="300" height="300" fill="white"/>
<path d="M63 130.89V72.89C63 66.87 67.88 62 73.89 62H131.89C141.59 62 146.45 73.73 139.59 80.59L81.59 138.59C74.73 145.45 63 140.59 63 130.89Z" fill="#205253"/>
<path d="M158.19 130.89V72.89C158.19 66.87 163.07 62 169.08 62H227.08C236.78 62 241.64 73.73 234.78 80.59L176.78 138.59C169.92 145.45 158.19 140.59 158.19 130.89Z" fill="#EE8077"/>
<path d="M63 226.09V168.09C63 162.07 67.88 157.2 73.89 157.2H131.89C141.59 157.2 146.45 168.93 139.59 175.79L81.59 233.79C74.73 240.65 63 235.79 63 226.09Z" fill="#205253"/>
<path d="M158.19 226.09V168.09C158.19 162.07 163.07 157.2 169.08 157.2H227.08C236.78 157.2 241.64 168.93 234.78 175.79L176.78 233.79C169.92 240.65 158.19 235.79 158.19 226.09Z" fill="#EE8077"/>
</svg>
