<svg width="300" height="300" viewBox="0 0 300 300" fill="none" xmlns="http://www.w3.org/2000/svg">
<rect width="300" height="300" fill="white"/>
<g clip-path="url(#clip0_2002_481)">
<path d="M143.765 138.001C143.765 110.432 121.388 88 93.8836 88H52.3131C52.3131 106.381 67.2299 121.333 85.5679 121.333H93.881C103.05 121.333 110.51 128.81 110.51 138.001V138.022C103.556 132.779 94.9198 129.666 85.5679 129.666C62.6481 129.668 44 148.358 44 171.334C44 194.311 62.6481 213 85.5679 213C97.9355 213 109.052 207.552 116.674 198.93C122.705 207.427 132.59 213 143.765 213V179.693C143.765 179.693 143.765 179.685 143.765 179.667V138.001ZM85.5679 179.667C80.9834 179.667 77.2549 175.93 77.2549 171.334C77.2549 166.739 80.9834 163.002 85.5679 163.002C90.1524 163.002 93.881 166.739 93.881 171.334C93.881 175.93 90.1524 179.667 85.5679 179.667Z" fill="#2B2216"/>
<path d="M214.432 129.668C205.08 129.668 196.444 132.782 189.49 138.025V138.001C189.49 128.81 196.95 121.333 206.119 121.333H214.432C232.767 121.333 247.687 106.381 247.687 88H214.459C214.459 88 214.451 88 214.432 88H206.119C178.612 88 156.235 110.432 156.235 138.001V213C167.41 213 177.292 207.427 183.326 198.93C190.948 207.552 202.064 213 214.432 213C237.352 213 256 194.308 256 171.334C256 148.36 237.352 129.668 214.432 129.668ZM214.432 179.667C209.848 179.667 206.119 175.93 206.119 171.334C206.119 166.739 209.848 163.002 214.432 163.002C219.017 163.002 222.745 166.739 222.745 171.334C222.745 175.93 219.017 179.667 214.432 179.667Z" fill="#2B2216"/>
</g>
<defs>
<clipPath id="clip0_2002_481">
<rect width="212" height="125" fill="white" transform="translate(44 88)"/>
</clipPath>
</defs>
</svg>
