<svg width="300" height="300" viewBox="0 0 300 300" fill="none" xmlns="http://www.w3.org/2000/svg">
<rect width="300" height="300" fill="white"/>
<g clip-path="url(#clip0_2002_350)">
<path d="M214.527 125.337L218.75 135.537L195.57 150L218.75 164.463L214.527 174.663L250 168.75V131.25L214.527 125.337Z" fill="black"/>
<path d="M150 181.25C167.259 181.25 181.25 167.259 181.25 150C181.25 132.741 167.259 118.75 150 118.75C132.741 118.75 118.75 132.741 118.75 150C118.75 167.259 132.741 181.25 150 181.25Z" fill="black"/>
<path d="M91.1603 111.613L117.777 117.777L111.614 91.16L121.814 86.9333L92.5469 66.03L66.0303 92.5467L86.9336 121.813L91.1603 111.613Z" fill="black"/>
<path d="M188.387 91.16L182.223 117.777L208.84 111.613L213.067 121.813L233.97 92.5467L207.453 66.03L178.187 86.9333L188.387 91.16Z" fill="black"/>
<path d="M135.537 81.25L150 104.43L164.464 81.25L174.664 85.4733L168.75 50H131.25L125.337 85.4733L135.537 81.25Z" fill="black"/>
<path d="M164.464 218.75L150 195.57L135.537 218.75L125.337 214.527L131.25 250H168.75L174.664 214.527L164.464 218.75Z" fill="black"/>
<path d="M208.84 188.387L182.223 182.223L188.387 208.84L178.187 213.067L207.453 233.97L233.97 207.453L213.067 178.187L208.84 188.387Z" fill="black"/>
<path d="M81.25 164.463L104.43 150L81.25 135.537L85.4733 125.337L50 131.25V168.75L85.4733 174.663L81.25 164.463Z" fill="black"/>
<path d="M111.614 208.84L117.777 182.223L91.1603 188.387L86.9336 178.187L66.0303 207.453L92.5469 233.97L121.814 213.067L111.614 208.84Z" fill="black"/>
</g>
<defs>
<clipPath id="clip0_2002_350">
<rect width="200" height="200" fill="white" transform="translate(50 50)"/>
</clipPath>
</defs>
</svg>
