<svg width="300" height="300" viewBox="0 0 300 300" fill="none" xmlns="http://www.w3.org/2000/svg">
<rect width="300" height="300" fill="white"/>
<g clip-path="url(#clip0_2002_321)">
<path d="M104.164 203.342C139.601 203.342 168.329 174.612 168.329 139.171C168.329 103.73 139.601 75 104.164 75C68.7274 75 40 103.73 40 139.171C40 174.612 68.7274 203.342 104.164 203.342Z" fill="#FDE1D2"/>
<path d="M246.077 147.444C237.489 143.52 227.721 144.931 220.59 151.114C220.428 151.253 220.266 151.407 220.12 151.561L161.93 210.744C161.098 211.623 160.18 211.507 159.556 211.261C158.931 211.014 158.191 210.459 158.191 209.248V168.878C158.191 159.256 152.71 150.891 143.898 147.051C135.079 143.204 125.226 144.884 118.157 151.446L40 224.545L40.3007 224.869H59.5276L127.408 161.384C130.484 158.524 134.624 157.822 138.471 159.503C142.318 161.183 144.615 164.692 144.615 168.886V209.256C144.615 215.732 148.501 221.469 154.514 223.874C160.527 226.272 167.296 224.8 171.759 220.104L229.702 161.183C232.786 158.647 236.78 158.123 240.442 159.796C244.188 161.507 246.432 164.992 246.432 169.109V224.869H260.008V169.109C260.008 159.665 254.673 151.369 246.085 147.444H246.077Z" fill="#CF451D"/>
</g>
<defs>
<clipPath id="clip0_2002_321">
<rect width="220" height="150" fill="white" transform="translate(40 75)"/>
</clipPath>
</defs>
</svg>
