<svg width="300" height="300" viewBox="0 0 300 300" fill="none" xmlns="http://www.w3.org/2000/svg">
<rect width="300" height="300" fill="white"/>
<g clip-path="url(#clip0_2002_340)">
<path d="M198.11 238C197.097 238 196.07 237.705 195.165 237.094C192.758 235.462 192.126 232.191 193.757 229.782C202.736 216.502 218.246 185.701 229.294 154.792C242.016 119.217 245.738 92.0684 239.502 80.3203C237.045 75.6828 233.044 73.5259 226.924 73.5259C215.264 73.5259 201.307 83.4334 187.73 100.833C193.491 113.242 196.659 129.851 196.659 147.797C196.659 186.082 182.45 224.835 155.302 224.835C149.01 224.835 144.003 222.067 140.813 216.826C138.234 212.591 136.927 206.746 136.927 199.448C136.927 178.102 148.227 144.468 165.051 115.752C168.355 110.108 171.796 104.794 175.316 99.8837C169.9 91.1122 162.96 86.676 154.62 86.676C146.28 86.676 138.363 90.1128 130.217 96.5261C132.739 106.419 133.392 116.614 133.392 124.487C133.392 143.059 129.887 162.399 123.773 177.541C116.597 195.314 106.547 205.099 95.4626 205.099C89.3853 205.099 84.5219 202.425 81.4042 197.363C78.8827 193.279 77.6041 187.707 77.6041 180.819C77.6041 162.557 86.325 137.019 99.8159 115.744C105.563 106.685 111.719 99.0713 118.134 93.0175C117.445 91.1265 116.69 89.3578 115.864 87.7258C111.037 78.1705 104.363 73.5331 95.4554 73.5331C86.0449 73.5331 78.502 78.4509 72.3959 88.567C63.5528 103.213 58.4955 128.672 58.5171 158.416C58.5315 182.847 62.2023 207.544 67.2452 217.135C68.5958 219.709 67.6116 222.887 65.0398 224.246C62.4681 225.598 59.2929 224.613 57.9352 222.039C46.2474 199.757 41.3122 119.72 63.402 83.1171C71.3471 69.9597 82.4315 63 95.4626 63C108.494 63 118.651 69.9022 125.253 82.9733C125.756 83.9655 126.223 84.9649 126.668 85.9858C135.784 79.5366 145.245 76.1574 154.627 76.1574C165.575 76.1574 174.928 81.2837 182.076 91.0906C185.783 86.5898 189.54 82.5635 193.282 79.1052C204.827 68.4211 216.148 63 226.931 63C236.938 63 244.502 67.2851 248.798 75.388C253.151 83.5988 254.121 95.9221 251.686 112.013C249.689 125.163 245.493 140.751 239.2 158.344C227.735 190.411 212.046 221.528 202.47 235.685C201.45 237.188 199.798 238 198.11 238ZM180.488 110.891C178.34 114.112 176.214 117.506 174.124 121.079C158.42 147.897 147.451 180.129 147.451 199.455C147.451 206.099 148.729 209.593 149.8 211.355C151.057 213.425 152.709 214.31 155.302 214.31C166.171 214.31 173.254 203.697 177.284 194.789C182.916 182.351 186.142 165.218 186.142 147.789C186.142 133.985 184.159 121.166 180.488 110.884V110.891ZM121.245 104.888C116.906 109.576 112.689 115.097 108.702 121.388C96.3965 140.787 88.1281 164.671 88.1281 180.819C88.1281 186.938 89.3422 190.188 90.355 191.834C91.5404 193.754 93.0705 194.574 95.4626 194.574C101.777 194.574 108.716 186.729 114.018 173.594C119.564 159.861 122.868 141.506 122.868 124.487C122.868 117.477 122.308 110.863 121.238 104.881L121.245 104.888Z" fill="#F06658"/>
</g>
<defs>
<clipPath id="clip0_2002_340">
<rect width="205" height="175" fill="white" transform="translate(48 63)"/>
</clipPath>
</defs>
</svg>
