<svg width="300" height="300" viewBox="0 0 300 300" fill="none" xmlns="http://www.w3.org/2000/svg">
<rect width="300" height="300" fill="white"/>
<g clip-path="url(#clip0_2002_215)">
<path d="M51.08 148.92H50.0286C50.0286 149.28 50 149.64 50 150C50 192.874 77.1257 229.52 115.109 243.709V212.949C115.109 177.646 86.3829 148.92 51.08 148.92Z" fill="#283C7E"/>
<path d="M150.011 122.823C150.406 122.389 150.777 121.943 151.177 121.52C170.509 100.857 195.554 87.0686 222.931 81.6914C204.674 62.2057 178.743 50 150 50C121.257 50 95.3314 62.2057 77.0742 81.68C105.04 87.2171 130.691 101.64 150.011 122.823Z" fill="#8AC673"/>
<path d="M248.543 133.103C246.234 119.589 241.206 107 234.04 95.9086C175.726 103.263 130.937 153.457 130.937 212.949V248.154C137.114 249.354 143.48 250 150 250C156.52 250 162.891 249.354 169.063 248.154V212.949C169.063 169.04 204.68 133.309 248.543 133.103Z" fill="#5AD1E5"/>
<path d="M249.972 148.92H248.92C213.612 148.92 184.892 177.646 184.892 212.949V243.709C222.874 229.52 250 192.874 250 150C250 149.64 249.977 149.28 249.972 148.92Z" fill="#283C7E"/>
<path d="M65.9656 95.8971C58.7942 106.994 53.7656 119.589 51.457 133.103C81.257 133.24 107.234 149.789 120.84 174.149C125.028 160.28 131.451 147.166 139.931 135.28C120.926 113.566 94.5199 99.5086 65.9656 95.8971Z" fill="#5AD1E5"/>
</g>
<defs>
<clipPath id="clip0_2002_215">
<rect width="200" height="200" fill="white" transform="translate(50 50)"/>
</clipPath>
</defs>
</svg>
