<svg width="300" height="300" viewBox="0 0 300 300" fill="none" xmlns="http://www.w3.org/2000/svg">
<rect width="300" height="300" fill="white"/>
<g clip-path="url(#clip0_2002_326)">
<path d="M238 72.4791C233.411 63.8468 220.286 63.8468 215.697 72.4791L205.333 91.9552C203.35 95.6992 179.667 147.707 150.5 147.707C121.333 147.707 97.825 96.0095 95.6667 91.9552L85.3028 72.4791C80.7139 63.8468 67.5889 63.8468 63 72.4791V221.867C67.5889 230.5 80.7139 230.5 85.3028 221.867L95.6667 202.391C99.8083 194.612 111.222 193.642 116.783 200.606L140.525 230.344C145.503 236.591 155.478 236.591 160.475 230.344L184.217 200.606C189.778 193.642 201.192 194.612 205.333 202.391L215.697 221.867C220.286 230.5 233.411 230.5 238 221.867V72.4791Z" fill="#F07E0C"/>
</g>
<defs>
<clipPath id="clip0_2002_326">
<rect width="175" height="169" fill="white" transform="translate(63 66)"/>
</clipPath>
</defs>
</svg>
