<svg width="300" height="300" viewBox="0 0 300 300" fill="none" xmlns="http://www.w3.org/2000/svg">
<rect width="300" height="300" fill="white"/>
<g clip-path="url(#clip0_2002_467)">
<path d="M89.9231 197.091C75.0562 197.091 63 209.141 63 224H211.077C225.944 224 238 211.95 238 197.091H89.9231Z" fill="#C41C1C"/>
<path d="M89.9231 102.909H211.077H238C238 88.0499 225.944 76 211.077 76H89.9231H63C63 90.8592 75.0562 102.909 89.9231 102.909Z" fill="#C41C1C"/>
<path d="M211.077 156.727H89.9231H63C63 171.586 75.0562 183.636 89.9231 183.636H211.077H238C238 168.777 225.944 156.727 211.077 156.727Z" fill="#C41C1C"/>
<path d="M211.077 116.364H89.9231C75.0562 116.364 63 128.414 63 143.273H211.077C225.944 143.273 238 131.223 238 116.364H211.077Z" fill="#C41C1C"/>
</g>
<defs>
<clipPath id="clip0_2002_467">
<rect width="175" height="148" fill="white" transform="translate(63 76)"/>
</clipPath>
</defs>
</svg>
