<svg width="300" height="300" viewBox="0 0 300 300" fill="none" xmlns="http://www.w3.org/2000/svg">
<rect width="300" height="300" fill="white"/>
<g clip-path="url(#clip0_2002_205)">
<path d="M63 165.866V196.852H68.2137C68.8722 196.852 74.7625 196.762 80.828 193.735C87.836 190.231 92.2462 184.135 93.5693 176.288H104.401C105.64 189.162 111.85 195.366 124.719 196.605V207.437C116.865 208.76 110.769 213.17 107.265 220.184C104.232 226.256 104.148 232.146 104.148 232.798V238.006H135.134V165.86L63 165.866ZM73.4213 185.615V176.281H82.9063C81.2932 182.039 77.0159 184.534 73.4213 185.615ZM124.712 227.579H115.379C116.46 223.978 118.961 219.707 124.712 218.088V227.579ZM124.712 186.183C118.146 185.446 115.554 182.854 114.817 176.288H124.712V186.183Z" fill="#C2AD00"/>
<path d="M238 135.134V104.136H232.786C224.685 104.136 210.016 108.588 207.407 124.712H196.599C195.36 111.838 189.156 105.634 176.282 104.401V93.5753C184.135 92.2523 190.231 87.8421 193.735 80.828C196.768 74.7625 196.858 68.8662 196.858 68.2137V63H165.866V135.134H238.006H238ZM227.573 115.373V124.712H218.082C219.701 118.955 223.972 116.454 227.573 115.373ZM176.282 73.4213H185.724C184.075 79.2392 179.846 81.7342 176.282 82.7975V73.4213ZM176.282 114.823C182.848 115.56 185.44 118.152 186.177 124.719H176.282V114.823Z" fill="#C2AD00"/>
<path d="M135.134 135.14V63H104.136V68.2197C104.136 76.3212 108.588 90.9896 124.712 93.5995V104.389C118.127 104.993 113.512 106.83 110.171 110.171C106.824 113.512 104.993 118.133 104.389 124.719H93.5753C92.2523 116.865 87.8421 110.769 80.828 107.265C74.7625 104.232 68.8662 104.148 68.2137 104.148H63V135.14H135.134ZM73.4213 124.719V115.276C79.2392 116.925 81.7342 121.154 82.7975 124.719H73.4213ZM115.373 73.4274H124.712V82.9123C118.955 81.2993 116.454 77.022 115.373 73.4274ZM117.535 117.541C118.937 116.14 121.287 115.264 124.712 114.853V124.719H114.847C115.258 121.293 116.128 118.943 117.535 117.541Z" fill="#C2AD00"/>
<path d="M237.994 145.289H155.705V63H145.283V145.289H63V155.711H145.283V238H155.705V155.711H237.994V145.289Z" fill="#C2AD00"/>
<path d="M165.86 165.866V238.006H196.852V232.792C196.852 224.691 192.4 210.022 176.282 207.413V196.605C189.156 195.366 195.36 189.162 196.593 176.288H207.401C210.004 192.406 224.673 196.864 232.774 196.864H237.982L237.994 165.86H165.854L165.86 165.866ZM185.621 227.579H176.282V218.088C182.039 219.707 184.54 223.978 185.621 227.579ZM176.282 186.183V176.288H186.177C185.44 182.854 182.848 185.446 176.282 186.183ZM227.573 185.73C221.755 184.081 219.26 179.846 218.196 176.275H227.573V185.73Z" fill="#C2AD00"/>
</g>
<defs>
<clipPath id="clip0_2002_205">
<rect width="175" height="175" fill="white" transform="translate(63 63)"/>
</clipPath>
</defs>
</svg>
