<svg width="300" height="300" viewBox="0 0 300 300" fill="none" xmlns="http://www.w3.org/2000/svg">
<rect width="300" height="300" fill="white"/>
<g clip-path="url(#clip0_2002_90)">
<path d="M149.996 249.993C205.223 249.993 249.993 205.223 249.993 149.996C249.993 94.77 205.223 50 149.996 50C94.77 50 50 94.77 50 149.996C50 205.223 94.77 249.993 149.996 249.993Z" fill="#00083F"/>
<path d="M199.995 199.995H99.9983V99.9982H149.997V149.996H199.995V199.995Z" fill="#10B8F9"/>
<path d="M181.247 149.996H149.997V181.247C132.735 181.247 118.746 167.258 118.746 149.996C118.746 132.735 132.735 118.746 149.997 118.746C167.258 118.746 181.247 132.735 181.247 149.996Z" fill="#8728FB"/>
<path d="M181.247 149.996H149.996V181.247C167.258 181.247 181.247 167.258 181.247 149.996Z" fill="white"/>
</g>
<defs>
<clipPath id="clip0_2002_90">
<rect width="200" height="200" fill="white" transform="translate(50 50)"/>
</clipPath>
</defs>
</svg>
