<svg width="300" height="300" viewBox="0 0 300 300" fill="none" xmlns="http://www.w3.org/2000/svg">
<rect width="300" height="300" fill="white"/>
<g clip-path="url(#clip0_2002_338)">
<path d="M209.996 150L149.996 90L70.002 170.002L89.997 189.998L109.999 170.002L149.996 210L209.996 150Z" fill="white"/>
<path d="M190 90H149.996L209.995 150L149.996 210H190L250 150L190 90Z" fill="#1A202C"/>
<path d="M89.9972 150L149.996 90H109.999L50 150L70.0021 170.002L89.9972 150Z" fill="#1A202C"/>
<path d="M89.9971 189.998L109.999 210H149.996L109.999 170.002L89.9971 189.998Z" fill="#1A202C"/>
<path d="M149.997 169.799C160.931 169.799 169.795 160.935 169.795 150C169.795 139.065 160.931 130.201 149.997 130.201C139.062 130.201 130.198 139.065 130.198 150C130.198 160.935 139.062 169.799 149.997 169.799Z" fill="#00BEDE"/>
</g>
<defs>
<clipPath id="clip0_2002_338">
<rect width="200" height="120" fill="white" transform="translate(50 90)"/>
</clipPath>
</defs>
</svg>
