<svg width="300" height="300" viewBox="0 0 300 300" fill="none" xmlns="http://www.w3.org/2000/svg">
<rect width="300" height="300" fill="white"/>
<g clip-path="url(#clip0_2002_328)">
<path d="M179.667 99.5556C152.428 99.5556 129.617 118.216 123.197 143.409C130.36 144.331 135.917 150.375 135.917 157.778C135.917 165.815 129.386 172.333 121.333 172.333C113.28 172.333 106.75 165.815 106.75 157.778C106.75 149.74 113.28 143.222 121.333 143.222V99.5556C89.1158 99.5556 63 125.622 63 157.778C63 189.934 89.1158 216 121.333 216C148.572 216 171.383 197.34 177.803 172.147C170.64 171.224 165.083 165.181 165.083 157.778C165.083 149.74 171.614 143.222 179.667 143.222C187.72 143.222 194.25 149.74 194.25 157.778C194.25 165.815 187.72 172.333 179.667 172.333V216C211.884 216 238 189.934 238 157.778C238 125.622 211.884 99.5556 179.667 99.5556ZM99.4583 128.667C95.4333 128.667 92.1667 125.409 92.1667 121.389C92.1667 117.369 95.4333 114.111 99.4583 114.111C103.483 114.111 106.75 117.369 106.75 121.389C106.75 125.409 103.483 128.667 99.4583 128.667Z" fill="#9CD398"/>
<path d="M128.625 92.2778C128.625 88.2575 125.358 85 121.333 85V99.5556C125.358 99.5556 128.625 96.298 128.625 92.2778Z" fill="#9CD398"/>
</g>
<defs>
<clipPath id="clip0_2002_328">
<rect width="175" height="131" fill="white" transform="translate(63 85)"/>
</clipPath>
</defs>
</svg>
