<svg width="300" height="300" viewBox="0 0 300 300" fill="none" xmlns="http://www.w3.org/2000/svg">
<rect width="300" height="300" fill="white"/>
<g clip-path="url(#clip0_2002_213)">
<path d="M150 49.9981L237.731 137.608C247.416 147.279 247.414 162.981 237.731 172.65L167.545 242.738C157.86 252.41 142.137 252.408 132.454 242.738L62.2699 172.652C52.5851 162.981 52.587 147.279 62.2699 137.61L150.001 49.9999L150 49.9981Z" fill="#ADD6F2"/>
<path d="M55 155.133C55 161.475 57.422 167.816 62.2688 172.656L132.454 242.744C142.145 252.421 157.858 252.421 167.548 242.744L237.734 172.656C242.578 167.819 245.003 161.475 245.003 155.133H55Z" fill="#64B8F2"/>
<path d="M185.093 155.133L161.676 178.517L114.907 225.221L132.454 242.744C142.145 252.421 157.858 252.421 167.548 242.744L220.187 190.179L185.093 155.133Z" fill="#0C2866"/>
<path d="M220.187 120.088L185.093 155.133L150.001 120.088H220.187Z" fill="#DD423E"/>
<path d="M185.093 85.0453L150.001 120.088L114.907 85.0453H185.093Z" fill="#DD423E"/>
<path d="M150.001 120.088L114.907 155.133L79.813 120.088H150.001Z" fill="#DD423E"/>
<path d="M79.813 120.088L114.907 85.0453L150.001 120.088H79.813Z" fill="#C41C1C"/>
<path d="M150.001 120.088L185.093 85.0453L220.187 120.088H150.001Z" fill="#C41C1C"/>
<path d="M150.001 190.176L114.907 155.133L150.001 120.088V190.176Z" fill="#A31916"/>
<path d="M150.001 120.088L185.093 155.133L150.001 190.176V120.088Z" fill="#C41C1C"/>
<path d="M150.002 190.178L114.909 155.134L79.8157 190.178L114.909 225.222L150.002 190.178Z" fill="#2672B5"/>
</g>
<defs>
<clipPath id="clip0_2002_213">
<rect width="190" height="200" fill="white" transform="translate(55 50)"/>
</clipPath>
</defs>
</svg>
